# MagicaVoxel @ Ephtracy

# group
o 

# material
mtllib Road.mtl
usemtl palette

# normals
vn -1 0 0
vn 1 0 0
vn 0 0 1
vn 0 0 -1
vn 0 -1 0
vn 0 1 0

# texcoords
vt 0.720703 0.5
vt 0.912109 0.5
vt 0.958984 0.5

# verts
v -2.6 0 7.5
v -2.6 0 -7.5
v -2.6 0.1 7.5
v -2.6 0.1 -7.5
v 2.6 0 7.5
v 2.6 0 -7.5
v 2.6 0.1 7.5
v 2.6 0.1 -7.5
v -2.6 0 7.5
v -2.6 0.1 7.5
v -1 0 7.5
v -1 0.1 7.5
v -0.8 0 7.5
v -0.8 0.1 7.5
v 0.8 0 7.5
v 0.8 0.1 7.5
v 1 0 7.5
v 1 0.1 7.5
v 2.6 0 7.5
v 2.6 0.1 7.5
v -2.6 0 -7.5
v -2.6 0.1 -7.5
v -1 0 -7.5
v -1 0.1 -7.5
v -0.8 0 -7.5
v -0.8 0.1 -7.5
v 0.8 0 -7.5
v 0.8 0.1 -7.5
v 1 0 -7.5
v 1 0.1 -7.5
v 2.6 0 -7.5
v 2.6 0.1 -7.5
v -2.6 0 7.5
v -1 0 7.5
v -0.8 0 7.5
v 0.8 0 7.5
v 1 0 7.5
v 2.6 0 7.5
v -1 0 6.8
v -0.8 0 6.8
v 0.8 0 6.8
v 1 0 6.8
v -1 0 6.6
v -0.8 0 6.6
v 0.8 0 6.6
v 1 0 6.6
v -1 0 6
v -0.8 0 6
v 0.8 0 6
v 1 0 6
v -1 0 5.8
v -0.8 0 5.8
v 0.8 0 5.8
v 1 0 5.8
v -1 0 5.2
v -0.8 0 5.2
v 0.8 0 5.2
v 1 0 5.2
v -1 0 5
v -0.9 0 5
v -0.8 0 5
v 0.8 0 5
v 1 0 5
v -1 0 4.4
v -0.9 0 4.4
v -0.8 0 4.4
v 0.8 0 4.4
v 1 0 4.4
v -1 0 4.2
v -0.9 0 4.2
v -0.8 0 4.2
v 0.8 0 4.2
v 1 0 4.2
v -1 0 3.6
v -0.9 0 3.6
v -0.8 0 3.6
v 0.8 0 3.6
v 1 0 3.6
v -1 0 3.4
v -0.9 0 3.4
v -0.8 0 3.4
v 0.8 0 3.4
v 1 0 3.4
v -1 0 2.8
v -0.9 0 2.8
v -0.8 0 2.8
v 0.8 0 2.8
v 1 0 2.8
v -1 0 2.6
v -0.9 0 2.6
v -0.8 0 2.6
v 0.8 0 2.6
v 1 0 2.6
v -1 0 2
v -0.9 0 2
v -0.8 0 2
v 0.8 0 2
v 1 0 2
v -1 0 1.8
v -0.9 0 1.8
v -0.8 0 1.8
v 0.8 0 1.8
v 1 0 1.8
v -1 0 1.2
v -0.9 0 1.2
v -0.8 0 1.2
v 0.8 0 1.2
v 1 0 1.2
v -1 0 1
v -0.9 0 1
v -0.8 0 1
v 0.8 0 1
v 1 0 1
v -1 0 0.4
v -0.9 0 0.4
v -0.8 0 0.4
v 0.8 0 0.4
v 1 0 0.4
v -1 0 0.2
v -0.9 0 0.2
v -0.8 0 0.2
v 0.8 0 0.2
v 1 0 0.2
v -1 0 -0.4
v -0.9 0 -0.4
v -0.8 0 -0.4
v 0.8 0 -0.4
v 1 0 -0.4
v -1 0 -0.6
v -0.9 0 -0.6
v -0.8 0 -0.6
v 0.8 0 -0.6
v 1 0 -0.6
v -1 0 -1.2
v -0.9 0 -1.2
v -0.8 0 -1.2
v 0.8 0 -1.2
v 1 0 -1.2
v -1 0 -1.4
v -0.9 0 -1.4
v -0.8 0 -1.4
v 0.8 0 -1.4
v 1 0 -1.4
v -1 0 -2
v -0.9 0 -2
v -0.8 0 -2
v 0.8 0 -2
v 1 0 -2
v -1 0 -2.2
v -0.9 0 -2.2
v -0.8 0 -2.2
v 0.8 0 -2.2
v 1 0 -2.2
v -1 0 -2.8
v -0.9 0 -2.8
v -0.8 0 -2.8
v 0.8 0 -2.8
v 1 0 -2.8
v -1 0 -3
v -0.9 0 -3
v -0.8 0 -3
v 0.8 0 -3
v 1 0 -3
v -1 0 -3.6
v -0.9 0 -3.6
v -0.8 0 -3.6
v 0.8 0 -3.6
v 1 0 -3.6
v -1 0 -3.8
v -0.9 0 -3.8
v -0.8 0 -3.8
v 0.8 0 -3.8
v 1 0 -3.8
v -1 0 -4.4
v -0.9 0 -4.4
v -0.8 0 -4.4
v 0.8 0 -4.4
v 1 0 -4.4
v -1 0 -4.6
v -0.9 0 -4.6
v -0.8 0 -4.6
v 0.8 0 -4.6
v 1 0 -4.6
v -0.9 0 -5
v -0.8 0 -5
v -1 0 -5.2
v -0.8 0 -5.2
v 0.8 0 -5.2
v 1 0 -5.2
v -1 0 -5.4
v -0.8 0 -5.4
v 0.8 0 -5.4
v 1 0 -5.4
v -1 0 -6
v -0.8 0 -6
v 0.8 0 -6
v 1 0 -6
v -1 0 -6.2
v -0.8 0 -6.2
v 0.8 0 -6.2
v 1 0 -6.2
v -1 0 -6.8
v -0.8 0 -6.8
v 0.8 0 -6.8
v 1 0 -6.8
v -1 0 -7
v -0.8 0 -7
v 0.8 0 -7
v 1 0 -7
v -2.6 0 -7.5
v -1 0 -7.5
v -0.8 0 -7.5
v 0.8 0 -7.5
v 1 0 -7.5
v 2.6 0 -7.5
v -2.6 0.1 7.5
v -1 0.1 7.5
v -0.8 0.1 7.5
v 0.8 0.1 7.5
v 1 0.1 7.5
v 2.6 0.1 7.5
v -1 0.1 6.8
v -0.8 0.1 6.8
v 0.8 0.1 6.8
v 1 0.1 6.8
v -1 0.1 6.6
v -0.8 0.1 6.6
v 0.8 0.1 6.6
v 1 0.1 6.6
v -1 0.1 6
v -0.8 0.1 6
v 0.8 0.1 6
v 1 0.1 6
v -1 0.1 5.8
v -0.8 0.1 5.8
v 0.8 0.1 5.8
v 1 0.1 5.8
v -1 0.1 5.2
v -0.8 0.1 5.2
v 0.8 0.1 5.2
v 1 0.1 5.2
v -1 0.1 5
v -0.9 0.1 5
v -0.8 0.1 5
v 0.8 0.1 5
v 1 0.1 5
v -1 0.1 4.4
v -0.9 0.1 4.4
v -0.8 0.1 4.4
v 0.8 0.1 4.4
v 1 0.1 4.4
v -1 0.1 4.2
v -0.9 0.1 4.2
v -0.8 0.1 4.2
v 0.8 0.1 4.2
v 1 0.1 4.2
v -1 0.1 3.6
v -0.9 0.1 3.6
v -0.8 0.1 3.6
v 0.8 0.1 3.6
v 1 0.1 3.6
v -1 0.1 3.4
v -0.9 0.1 3.4
v -0.8 0.1 3.4
v 0.8 0.1 3.4
v 1 0.1 3.4
v -1 0.1 2.8
v -0.9 0.1 2.8
v -0.8 0.1 2.8
v 0.8 0.1 2.8
v 1 0.1 2.8
v -1 0.1 2.6
v -0.9 0.1 2.6
v -0.8 0.1 2.6
v 0.8 0.1 2.6
v 1 0.1 2.6
v -1 0.1 2
v -0.9 0.1 2
v -0.8 0.1 2
v 0.8 0.1 2
v 1 0.1 2
v -1 0.1 1.8
v -0.9 0.1 1.8
v -0.8 0.1 1.8
v 0.8 0.1 1.8
v 1 0.1 1.8
v -1 0.1 1.2
v -0.9 0.1 1.2
v -0.8 0.1 1.2
v 0.8 0.1 1.2
v 1 0.1 1.2
v -1 0.1 1
v -0.9 0.1 1
v -0.8 0.1 1
v 0.8 0.1 1
v 1 0.1 1
v -1 0.1 0.4
v -0.9 0.1 0.4
v -0.8 0.1 0.4
v 0.8 0.1 0.4
v 1 0.1 0.4
v -1 0.1 0.2
v -0.9 0.1 0.2
v -0.8 0.1 0.2
v 0.8 0.1 0.2
v 1 0.1 0.2
v -1 0.1 -0.4
v -0.9 0.1 -0.4
v -0.8 0.1 -0.4
v 0.8 0.1 -0.4
v 1 0.1 -0.4
v -1 0.1 -0.6
v -0.9 0.1 -0.6
v -0.8 0.1 -0.6
v 0.8 0.1 -0.6
v 1 0.1 -0.6
v -1 0.1 -1.2
v -0.9 0.1 -1.2
v -0.8 0.1 -1.2
v 0.8 0.1 -1.2
v 1 0.1 -1.2
v -1 0.1 -1.4
v -0.9 0.1 -1.4
v -0.8 0.1 -1.4
v 0.8 0.1 -1.4
v 1 0.1 -1.4
v -1 0.1 -2
v -0.9 0.1 -2
v -0.8 0.1 -2
v 0.8 0.1 -2
v 1 0.1 -2
v -1 0.1 -2.2
v -0.9 0.1 -2.2
v -0.8 0.1 -2.2
v 0.8 0.1 -2.2
v 1 0.1 -2.2
v -1 0.1 -2.8
v -0.9 0.1 -2.8
v -0.8 0.1 -2.8
v 0.8 0.1 -2.8
v 1 0.1 -2.8
v -1 0.1 -3
v -0.9 0.1 -3
v -0.8 0.1 -3
v 0.8 0.1 -3
v 1 0.1 -3
v -1 0.1 -3.6
v -0.9 0.1 -3.6
v -0.8 0.1 -3.6
v 0.8 0.1 -3.6
v 1 0.1 -3.6
v -1 0.1 -3.8
v -0.9 0.1 -3.8
v -0.8 0.1 -3.8
v 0.8 0.1 -3.8
v 1 0.1 -3.8
v -1 0.1 -4.4
v -0.9 0.1 -4.4
v -0.8 0.1 -4.4
v 0.8 0.1 -4.4
v 1 0.1 -4.4
v -1 0.1 -4.6
v -0.9 0.1 -4.6
v -0.8 0.1 -4.6
v 0.8 0.1 -4.6
v 1 0.1 -4.6
v -0.9 0.1 -5
v -0.8 0.1 -5
v -1 0.1 -5.2
v -0.8 0.1 -5.2
v 0.8 0.1 -5.2
v 1 0.1 -5.2
v -1 0.1 -5.4
v -0.8 0.1 -5.4
v 0.8 0.1 -5.4
v 1 0.1 -5.4
v -1 0.1 -6
v -0.8 0.1 -6
v 0.8 0.1 -6
v 1 0.1 -6
v -1 0.1 -6.2
v -0.8 0.1 -6.2
v 0.8 0.1 -6.2
v 1 0.1 -6.2
v -1 0.1 -6.8
v -0.8 0.1 -6.8
v 0.8 0.1 -6.8
v 1 0.1 -6.8
v -1 0.1 -7
v -0.8 0.1 -7
v 0.8 0.1 -7
v 1 0.1 -7
v -2.6 0.1 -7.5
v -1 0.1 -7.5
v -0.8 0.1 -7.5
v 0.8 0.1 -7.5
v 1 0.1 -7.5
v 2.6 0.1 -7.5

# faces
f 3/1/1 2/1/1 1/1/1
f 4/1/1 2/1/1 3/1/1
f 5/1/2 6/1/2 7/1/2
f 7/1/2 6/1/2 8/1/2
f 11/1/3 10/1/3 9/1/3
f 12/1/3 10/1/3 11/1/3
f 13/3/3 12/3/3 11/3/3
f 14/3/3 12/3/3 13/3/3
f 15/1/3 14/1/3 13/1/3
f 16/1/3 14/1/3 15/1/3
f 17/3/3 16/3/3 15/3/3
f 18/3/3 16/3/3 17/3/3
f 19/1/3 18/1/3 17/1/3
f 20/1/3 18/1/3 19/1/3
f 21/1/4 22/1/4 23/1/4
f 23/1/4 22/1/4 24/1/4
f 23/3/4 24/3/4 25/3/4
f 25/3/4 24/3/4 26/3/4
f 25/1/4 26/1/4 27/1/4
f 27/1/4 26/1/4 28/1/4
f 27/3/4 28/3/4 29/3/4
f 29/3/4 28/3/4 30/3/4
f 29/1/4 30/1/4 31/1/4
f 31/1/4 30/1/4 32/1/4
f 39/1/5 34/1/5 33/1/5
f 39/3/5 35/3/5 34/3/5
f 40/1/5 36/1/5 35/1/5
f 40/3/5 35/3/5 39/3/5
f 41/3/5 37/3/5 36/3/5
f 41/1/5 36/1/5 40/1/5
f 42/1/5 38/1/5 37/1/5
f 42/3/5 37/3/5 41/3/5
f 43/1/5 41/1/5 40/1/5
f 43/1/5 40/1/5 39/1/5
f 43/1/5 42/1/5 41/1/5
f 43/1/5 39/1/5 33/1/5
f 44/1/5 42/1/5 43/1/5
f 45/1/5 42/1/5 44/1/5
f 46/1/5 38/1/5 42/1/5
f 46/1/5 42/1/5 45/1/5
f 47/1/5 43/1/5 33/1/5
f 47/3/5 44/3/5 43/3/5
f 48/1/5 45/1/5 44/1/5
f 48/3/5 44/3/5 47/3/5
f 49/3/5 46/3/5 45/3/5
f 49/1/5 45/1/5 48/1/5
f 50/1/5 38/1/5 46/1/5
f 50/3/5 46/3/5 49/3/5
f 51/1/5 47/1/5 33/1/5
f 51/1/5 49/1/5 48/1/5
f 51/1/5 50/1/5 49/1/5
f 51/1/5 48/1/5 47/1/5
f 52/1/5 50/1/5 51/1/5
f 53/1/5 50/1/5 52/1/5
f 54/1/5 38/1/5 50/1/5
f 54/1/5 50/1/5 53/1/5
f 55/1/5 51/1/5 33/1/5
f 55/3/5 52/3/5 51/3/5
f 56/1/5 53/1/5 52/1/5
f 56/3/5 52/3/5 55/3/5
f 57/3/5 54/3/5 53/3/5
f 57/1/5 53/1/5 56/1/5
f 58/1/5 38/1/5 54/1/5
f 58/3/5 54/3/5 57/3/5
f 59/1/5 55/1/5 33/1/5
f 59/1/5 57/1/5 56/1/5
f 59/1/5 58/1/5 57/1/5
f 59/1/5 56/1/5 55/1/5
f 60/1/5 58/1/5 59/1/5
f 61/1/5 58/1/5 60/1/5
f 62/1/5 58/1/5 61/1/5
f 63/1/5 38/1/5 58/1/5
f 63/1/5 58/1/5 62/1/5
f 64/1/5 59/1/5 33/1/5
f 64/3/5 60/3/5 59/3/5
f 65/2/5 61/2/5 60/2/5
f 65/3/5 60/3/5 64/3/5
f 66/1/5 62/1/5 61/1/5
f 66/2/5 61/2/5 65/2/5
f 67/3/5 63/3/5 62/3/5
f 67/1/5 62/1/5 66/1/5
f 68/1/5 38/1/5 63/1/5
f 68/3/5 63/3/5 67/3/5
f 69/1/5 65/1/5 64/1/5
f 69/1/5 67/1/5 66/1/5
f 69/1/5 68/1/5 67/1/5
f 69/1/5 64/1/5 33/1/5
f 69/1/5 66/1/5 65/1/5
f 70/1/5 68/1/5 69/1/5
f 71/1/5 68/1/5 70/1/5
f 72/1/5 68/1/5 71/1/5
f 73/1/5 38/1/5 68/1/5
f 73/1/5 68/1/5 72/1/5
f 74/1/5 69/1/5 33/1/5
f 74/3/5 70/3/5 69/3/5
f 75/2/5 71/2/5 70/2/5
f 75/3/5 70/3/5 74/3/5
f 76/1/5 72/1/5 71/1/5
f 76/2/5 71/2/5 75/2/5
f 77/3/5 73/3/5 72/3/5
f 77/1/5 72/1/5 76/1/5
f 78/1/5 38/1/5 73/1/5
f 78/3/5 73/3/5 77/3/5
f 79/1/5 75/1/5 74/1/5
f 79/1/5 77/1/5 76/1/5
f 79/1/5 78/1/5 77/1/5
f 79/1/5 74/1/5 33/1/5
f 79/1/5 76/1/5 75/1/5
f 80/1/5 78/1/5 79/1/5
f 81/1/5 78/1/5 80/1/5
f 82/1/5 78/1/5 81/1/5
f 83/1/5 38/1/5 78/1/5
f 83/1/5 78/1/5 82/1/5
f 84/1/5 79/1/5 33/1/5
f 84/3/5 80/3/5 79/3/5
f 85/2/5 81/2/5 80/2/5
f 85/3/5 80/3/5 84/3/5
f 86/1/5 82/1/5 81/1/5
f 86/2/5 81/2/5 85/2/5
f 87/3/5 83/3/5 82/3/5
f 87/1/5 82/1/5 86/1/5
f 88/1/5 38/1/5 83/1/5
f 88/3/5 83/3/5 87/3/5
f 89/1/5 85/1/5 84/1/5
f 89/1/5 87/1/5 86/1/5
f 89/1/5 88/1/5 87/1/5
f 89/1/5 84/1/5 33/1/5
f 89/1/5 86/1/5 85/1/5
f 90/1/5 88/1/5 89/1/5
f 91/1/5 88/1/5 90/1/5
f 92/1/5 88/1/5 91/1/5
f 93/1/5 38/1/5 88/1/5
f 93/1/5 88/1/5 92/1/5
f 94/1/5 89/1/5 33/1/5
f 94/3/5 90/3/5 89/3/5
f 95/2/5 91/2/5 90/2/5
f 95/3/5 90/3/5 94/3/5
f 96/1/5 92/1/5 91/1/5
f 96/2/5 91/2/5 95/2/5
f 97/3/5 93/3/5 92/3/5
f 97/1/5 92/1/5 96/1/5
f 98/1/5 38/1/5 93/1/5
f 98/3/5 93/3/5 97/3/5
f 99/1/5 95/1/5 94/1/5
f 99/1/5 97/1/5 96/1/5
f 99/1/5 98/1/5 97/1/5
f 99/1/5 94/1/5 33/1/5
f 99/1/5 96/1/5 95/1/5
f 100/1/5 98/1/5 99/1/5
f 101/1/5 98/1/5 100/1/5
f 102/1/5 98/1/5 101/1/5
f 103/1/5 38/1/5 98/1/5
f 103/1/5 98/1/5 102/1/5
f 104/1/5 99/1/5 33/1/5
f 104/3/5 100/3/5 99/3/5
f 105/2/5 101/2/5 100/2/5
f 105/3/5 100/3/5 104/3/5
f 106/1/5 102/1/5 101/1/5
f 106/2/5 101/2/5 105/2/5
f 107/3/5 103/3/5 102/3/5
f 107/1/5 102/1/5 106/1/5
f 108/1/5 38/1/5 103/1/5
f 108/3/5 103/3/5 107/3/5
f 109/1/5 105/1/5 104/1/5
f 109/1/5 107/1/5 106/1/5
f 109/1/5 108/1/5 107/1/5
f 109/1/5 104/1/5 33/1/5
f 109/1/5 106/1/5 105/1/5
f 110/1/5 108/1/5 109/1/5
f 111/1/5 108/1/5 110/1/5
f 112/1/5 108/1/5 111/1/5
f 113/1/5 38/1/5 108/1/5
f 113/1/5 108/1/5 112/1/5
f 114/1/5 109/1/5 33/1/5
f 114/3/5 110/3/5 109/3/5
f 115/2/5 111/2/5 110/2/5
f 115/3/5 110/3/5 114/3/5
f 116/1/5 112/1/5 111/1/5
f 116/2/5 111/2/5 115/2/5
f 117/3/5 113/3/5 112/3/5
f 117/1/5 112/1/5 116/1/5
f 118/1/5 38/1/5 113/1/5
f 118/3/5 113/3/5 117/3/5
f 119/1/5 115/1/5 114/1/5
f 119/1/5 117/1/5 116/1/5
f 119/1/5 118/1/5 117/1/5
f 119/1/5 114/1/5 33/1/5
f 119/1/5 116/1/5 115/1/5
f 120/1/5 118/1/5 119/1/5
f 121/1/5 118/1/5 120/1/5
f 122/1/5 118/1/5 121/1/5
f 123/1/5 38/1/5 118/1/5
f 123/1/5 118/1/5 122/1/5
f 124/1/5 119/1/5 33/1/5
f 124/3/5 120/3/5 119/3/5
f 125/2/5 121/2/5 120/2/5
f 125/3/5 120/3/5 124/3/5
f 126/1/5 122/1/5 121/1/5
f 126/2/5 121/2/5 125/2/5
f 127/3/5 123/3/5 122/3/5
f 127/1/5 122/1/5 126/1/5
f 128/1/5 38/1/5 123/1/5
f 128/3/5 123/3/5 127/3/5
f 129/1/5 125/1/5 124/1/5
f 129/1/5 127/1/5 126/1/5
f 129/1/5 128/1/5 127/1/5
f 129/1/5 124/1/5 33/1/5
f 129/1/5 126/1/5 125/1/5
f 130/1/5 128/1/5 129/1/5
f 131/1/5 128/1/5 130/1/5
f 132/1/5 128/1/5 131/1/5
f 133/1/5 38/1/5 128/1/5
f 133/1/5 128/1/5 132/1/5
f 134/1/5 129/1/5 33/1/5
f 134/3/5 130/3/5 129/3/5
f 135/2/5 131/2/5 130/2/5
f 135/3/5 130/3/5 134/3/5
f 136/1/5 132/1/5 131/1/5
f 136/2/5 131/2/5 135/2/5
f 137/3/5 133/3/5 132/3/5
f 137/1/5 132/1/5 136/1/5
f 138/1/5 38/1/5 133/1/5
f 138/3/5 133/3/5 137/3/5
f 139/1/5 135/1/5 134/1/5
f 139/1/5 137/1/5 136/1/5
f 139/1/5 138/1/5 137/1/5
f 139/1/5 134/1/5 33/1/5
f 139/1/5 136/1/5 135/1/5
f 140/1/5 138/1/5 139/1/5
f 141/1/5 138/1/5 140/1/5
f 142/1/5 138/1/5 141/1/5
f 143/1/5 38/1/5 138/1/5
f 143/1/5 138/1/5 142/1/5
f 144/1/5 139/1/5 33/1/5
f 144/3/5 140/3/5 139/3/5
f 145/2/5 141/2/5 140/2/5
f 145/3/5 140/3/5 144/3/5
f 146/1/5 142/1/5 141/1/5
f 146/2/5 141/2/5 145/2/5
f 147/3/5 143/3/5 142/3/5
f 147/1/5 142/1/5 146/1/5
f 148/1/5 38/1/5 143/1/5
f 148/3/5 143/3/5 147/3/5
f 149/1/5 145/1/5 144/1/5
f 149/1/5 147/1/5 146/1/5
f 149/1/5 148/1/5 147/1/5
f 149/1/5 144/1/5 33/1/5
f 149/1/5 146/1/5 145/1/5
f 150/1/5 148/1/5 149/1/5
f 151/1/5 148/1/5 150/1/5
f 152/1/5 148/1/5 151/1/5
f 153/1/5 38/1/5 148/1/5
f 153/1/5 148/1/5 152/1/5
f 154/1/5 149/1/5 33/1/5
f 154/3/5 150/3/5 149/3/5
f 155/2/5 151/2/5 150/2/5
f 155/3/5 150/3/5 154/3/5
f 156/1/5 152/1/5 151/1/5
f 156/2/5 151/2/5 155/2/5
f 157/3/5 153/3/5 152/3/5
f 157/1/5 152/1/5 156/1/5
f 158/1/5 38/1/5 153/1/5
f 158/3/5 153/3/5 157/3/5
f 159/1/5 155/1/5 154/1/5
f 159/1/5 157/1/5 156/1/5
f 159/1/5 158/1/5 157/1/5
f 159/1/5 154/1/5 33/1/5
f 159/1/5 156/1/5 155/1/5
f 160/1/5 158/1/5 159/1/5
f 161/1/5 158/1/5 160/1/5
f 162/1/5 158/1/5 161/1/5
f 163/1/5 38/1/5 158/1/5
f 163/1/5 158/1/5 162/1/5
f 164/1/5 159/1/5 33/1/5
f 164/3/5 160/3/5 159/3/5
f 165/2/5 161/2/5 160/2/5
f 165/3/5 160/3/5 164/3/5
f 166/1/5 162/1/5 161/1/5
f 166/2/5 161/2/5 165/2/5
f 167/3/5 163/3/5 162/3/5
f 167/1/5 162/1/5 166/1/5
f 168/1/5 38/1/5 163/1/5
f 168/3/5 163/3/5 167/3/5
f 169/1/5 165/1/5 164/1/5
f 169/1/5 167/1/5 166/1/5
f 169/1/5 168/1/5 167/1/5
f 169/1/5 164/1/5 33/1/5
f 169/1/5 166/1/5 165/1/5
f 170/1/5 168/1/5 169/1/5
f 171/1/5 168/1/5 170/1/5
f 172/1/5 168/1/5 171/1/5
f 173/1/5 38/1/5 168/1/5
f 173/1/5 168/1/5 172/1/5
f 174/1/5 169/1/5 33/1/5
f 174/3/5 170/3/5 169/3/5
f 175/2/5 171/2/5 170/2/5
f 175/3/5 170/3/5 174/3/5
f 176/1/5 172/1/5 171/1/5
f 176/2/5 171/2/5 175/2/5
f 177/3/5 173/3/5 172/3/5
f 177/1/5 172/1/5 176/1/5
f 178/1/5 38/1/5 173/1/5
f 178/3/5 173/3/5 177/3/5
f 179/1/5 175/1/5 174/1/5
f 179/1/5 177/1/5 176/1/5
f 179/1/5 178/1/5 177/1/5
f 179/1/5 174/1/5 33/1/5
f 179/1/5 176/1/5 175/1/5
f 180/1/5 178/1/5 179/1/5
f 181/1/5 178/1/5 180/1/5
f 182/1/5 178/1/5 181/1/5
f 183/1/5 38/1/5 178/1/5
f 183/1/5 178/1/5 182/1/5
f 184/3/5 180/3/5 179/3/5
f 184/2/5 181/2/5 180/2/5
f 185/1/5 182/1/5 181/1/5
f 185/2/5 181/2/5 184/2/5
f 186/3/5 184/3/5 179/3/5
f 186/1/5 179/1/5 33/1/5
f 186/3/5 185/3/5 184/3/5
f 187/1/5 182/1/5 185/1/5
f 187/3/5 185/3/5 186/3/5
f 188/3/5 183/3/5 182/3/5
f 188/1/5 182/1/5 187/1/5
f 189/1/5 38/1/5 183/1/5
f 189/3/5 183/3/5 188/3/5
f 190/1/5 186/1/5 33/1/5
f 190/1/5 187/1/5 186/1/5
f 190/1/5 189/1/5 188/1/5
f 190/1/5 188/1/5 187/1/5
f 191/1/5 189/1/5 190/1/5
f 192/1/5 189/1/5 191/1/5
f 193/1/5 38/1/5 189/1/5
f 193/1/5 189/1/5 192/1/5
f 194/1/5 190/1/5 33/1/5
f 194/3/5 191/3/5 190/3/5
f 195/1/5 192/1/5 191/1/5
f 195/3/5 191/3/5 194/3/5
f 196/3/5 193/3/5 192/3/5
f 196/1/5 192/1/5 195/1/5
f 197/1/5 38/1/5 193/1/5
f 197/3/5 193/3/5 196/3/5
f 198/1/5 194/1/5 33/1/5
f 198/1/5 196/1/5 195/1/5
f 198/1/5 197/1/5 196/1/5
f 198/1/5 195/1/5 194/1/5
f 199/1/5 197/1/5 198/1/5
f 200/1/5 197/1/5 199/1/5
f 201/1/5 38/1/5 197/1/5
f 201/1/5 197/1/5 200/1/5
f 202/1/5 198/1/5 33/1/5
f 202/3/5 199/3/5 198/3/5
f 203/1/5 200/1/5 199/1/5
f 203/3/5 199/3/5 202/3/5
f 204/3/5 201/3/5 200/3/5
f 204/1/5 200/1/5 203/1/5
f 205/1/5 38/1/5 201/1/5
f 205/3/5 201/3/5 204/3/5
f 206/1/5 202/1/5 33/1/5
f 206/1/5 204/1/5 203/1/5
f 206/1/5 205/1/5 204/1/5
f 206/1/5 203/1/5 202/1/5
f 207/1/5 205/1/5 206/1/5
f 208/1/5 205/1/5 207/1/5
f 209/1/5 38/1/5 205/1/5
f 209/1/5 205/1/5 208/1/5
f 210/1/5 206/1/5 33/1/5
f 211/3/5 207/3/5 206/3/5
f 211/1/5 206/1/5 210/1/5
f 212/1/5 208/1/5 207/1/5
f 212/3/5 207/3/5 211/3/5
f 213/3/5 209/3/5 208/3/5
f 213/1/5 208/1/5 212/1/5
f 214/1/5 38/1/5 209/1/5
f 214/3/5 209/3/5 213/3/5
f 215/1/5 38/1/5 214/1/5
f 216/1/6 217/1/6 222/1/6
f 217/3/6 218/3/6 222/3/6
f 218/1/6 219/1/6 223/1/6
f 222/3/6 218/3/6 223/3/6
f 219/3/6 220/3/6 224/3/6
f 223/1/6 219/1/6 224/1/6
f 220/1/6 221/1/6 225/1/6
f 224/3/6 220/3/6 225/3/6
f 223/1/6 224/1/6 226/1/6
f 222/1/6 223/1/6 226/1/6
f 224/1/6 225/1/6 226/1/6
f 216/1/6 222/1/6 226/1/6
f 226/1/6 225/1/6 227/1/6
f 227/1/6 225/1/6 228/1/6
f 225/1/6 221/1/6 229/1/6
f 228/1/6 225/1/6 229/1/6
f 216/1/6 226/1/6 230/1/6
f 226/3/6 227/3/6 230/3/6
f 227/1/6 228/1/6 231/1/6
f 230/3/6 227/3/6 231/3/6
f 228/3/6 229/3/6 232/3/6
f 231/1/6 228/1/6 232/1/6
f 229/1/6 221/1/6 233/1/6
f 232/3/6 229/3/6 233/3/6
f 216/1/6 230/1/6 234/1/6
f 231/1/6 232/1/6 234/1/6
f 232/1/6 233/1/6 234/1/6
f 230/1/6 231/1/6 234/1/6
f 234/1/6 233/1/6 235/1/6
f 235/1/6 233/1/6 236/1/6
f 233/1/6 221/1/6 237/1/6
f 236/1/6 233/1/6 237/1/6
f 216/1/6 234/1/6 238/1/6
f 234/3/6 235/3/6 238/3/6
f 235/1/6 236/1/6 239/1/6
f 238/3/6 235/3/6 239/3/6
f 236/3/6 237/3/6 240/3/6
f 239/1/6 236/1/6 240/1/6
f 237/1/6 221/1/6 241/1/6
f 240/3/6 237/3/6 241/3/6
f 216/1/6 238/1/6 242/1/6
f 239/1/6 240/1/6 242/1/6
f 240/1/6 241/1/6 242/1/6
f 238/1/6 239/1/6 242/1/6
f 242/1/6 241/1/6 243/1/6
f 243/1/6 241/1/6 244/1/6
f 244/1/6 241/1/6 245/1/6
f 241/1/6 221/1/6 246/1/6
f 245/1/6 241/1/6 246/1/6
f 216/1/6 242/1/6 247/1/6
f 242/3/6 243/3/6 247/3/6
f 243/2/6 244/2/6 248/2/6
f 247/3/6 243/3/6 248/3/6
f 244/1/6 245/1/6 249/1/6
f 248/2/6 244/2/6 249/2/6
f 245/3/6 246/3/6 250/3/6
f 249/1/6 245/1/6 250/1/6
f 246/1/6 221/1/6 251/1/6
f 250/3/6 246/3/6 251/3/6
f 247/1/6 248/1/6 252/1/6
f 249/1/6 250/1/6 252/1/6
f 250/1/6 251/1/6 252/1/6
f 216/1/6 247/1/6 252/1/6
f 248/1/6 249/1/6 252/1/6
f 252/1/6 251/1/6 253/1/6
f 253/1/6 251/1/6 254/1/6
f 254/1/6 251/1/6 255/1/6
f 251/1/6 221/1/6 256/1/6
f 255/1/6 251/1/6 256/1/6
f 216/1/6 252/1/6 257/1/6
f 252/3/6 253/3/6 257/3/6
f 253/2/6 254/2/6 258/2/6
f 257/3/6 253/3/6 258/3/6
f 254/1/6 255/1/6 259/1/6
f 258/2/6 254/2/6 259/2/6
f 255/3/6 256/3/6 260/3/6
f 259/1/6 255/1/6 260/1/6
f 256/1/6 221/1/6 261/1/6
f 260/3/6 256/3/6 261/3/6
f 257/1/6 258/1/6 262/1/6
f 259/1/6 260/1/6 262/1/6
f 260/1/6 261/1/6 262/1/6
f 216/1/6 257/1/6 262/1/6
f 258/1/6 259/1/6 262/1/6
f 262/1/6 261/1/6 263/1/6
f 263/1/6 261/1/6 264/1/6
f 264/1/6 261/1/6 265/1/6
f 261/1/6 221/1/6 266/1/6
f 265/1/6 261/1/6 266/1/6
f 216/1/6 262/1/6 267/1/6
f 262/3/6 263/3/6 267/3/6
f 263/2/6 264/2/6 268/2/6
f 267/3/6 263/3/6 268/3/6
f 264/1/6 265/1/6 269/1/6
f 268/2/6 264/2/6 269/2/6
f 265/3/6 266/3/6 270/3/6
f 269/1/6 265/1/6 270/1/6
f 266/1/6 221/1/6 271/1/6
f 270/3/6 266/3/6 271/3/6
f 267/1/6 268/1/6 272/1/6
f 269/1/6 270/1/6 272/1/6
f 270/1/6 271/1/6 272/1/6
f 216/1/6 267/1/6 272/1/6
f 268/1/6 269/1/6 272/1/6
f 272/1/6 271/1/6 273/1/6
f 273/1/6 271/1/6 274/1/6
f 274/1/6 271/1/6 275/1/6
f 271/1/6 221/1/6 276/1/6
f 275/1/6 271/1/6 276/1/6
f 216/1/6 272/1/6 277/1/6
f 272/3/6 273/3/6 277/3/6
f 273/2/6 274/2/6 278/2/6
f 277/3/6 273/3/6 278/3/6
f 274/1/6 275/1/6 279/1/6
f 278/2/6 274/2/6 279/2/6
f 275/3/6 276/3/6 280/3/6
f 279/1/6 275/1/6 280/1/6
f 276/1/6 221/1/6 281/1/6
f 280/3/6 276/3/6 281/3/6
f 277/1/6 278/1/6 282/1/6
f 279/1/6 280/1/6 282/1/6
f 280/1/6 281/1/6 282/1/6
f 216/1/6 277/1/6 282/1/6
f 278/1/6 279/1/6 282/1/6
f 282/1/6 281/1/6 283/1/6
f 283/1/6 281/1/6 284/1/6
f 284/1/6 281/1/6 285/1/6
f 281/1/6 221/1/6 286/1/6
f 285/1/6 281/1/6 286/1/6
f 216/1/6 282/1/6 287/1/6
f 282/3/6 283/3/6 287/3/6
f 283/2/6 284/2/6 288/2/6
f 287/3/6 283/3/6 288/3/6
f 284/1/6 285/1/6 289/1/6
f 288/2/6 284/2/6 289/2/6
f 285/3/6 286/3/6 290/3/6
f 289/1/6 285/1/6 290/1/6
f 286/1/6 221/1/6 291/1/6
f 290/3/6 286/3/6 291/3/6
f 287/1/6 288/1/6 292/1/6
f 289/1/6 290/1/6 292/1/6
f 290/1/6 291/1/6 292/1/6
f 216/1/6 287/1/6 292/1/6
f 288/1/6 289/1/6 292/1/6
f 292/1/6 291/1/6 293/1/6
f 293/1/6 291/1/6 294/1/6
f 294/1/6 291/1/6 295/1/6
f 291/1/6 221/1/6 296/1/6
f 295/1/6 291/1/6 296/1/6
f 216/1/6 292/1/6 297/1/6
f 292/3/6 293/3/6 297/3/6
f 293/2/6 294/2/6 298/2/6
f 297/3/6 293/3/6 298/3/6
f 294/1/6 295/1/6 299/1/6
f 298/2/6 294/2/6 299/2/6
f 295/3/6 296/3/6 300/3/6
f 299/1/6 295/1/6 300/1/6
f 296/1/6 221/1/6 301/1/6
f 300/3/6 296/3/6 301/3/6
f 297/1/6 298/1/6 302/1/6
f 299/1/6 300/1/6 302/1/6
f 300/1/6 301/1/6 302/1/6
f 216/1/6 297/1/6 302/1/6
f 298/1/6 299/1/6 302/1/6
f 302/1/6 301/1/6 303/1/6
f 303/1/6 301/1/6 304/1/6
f 304/1/6 301/1/6 305/1/6
f 301/1/6 221/1/6 306/1/6
f 305/1/6 301/1/6 306/1/6
f 216/1/6 302/1/6 307/1/6
f 302/3/6 303/3/6 307/3/6
f 303/2/6 304/2/6 308/2/6
f 307/3/6 303/3/6 308/3/6
f 304/1/6 305/1/6 309/1/6
f 308/2/6 304/2/6 309/2/6
f 305/3/6 306/3/6 310/3/6
f 309/1/6 305/1/6 310/1/6
f 306/1/6 221/1/6 311/1/6
f 310/3/6 306/3/6 311/3/6
f 307/1/6 308/1/6 312/1/6
f 309/1/6 310/1/6 312/1/6
f 310/1/6 311/1/6 312/1/6
f 216/1/6 307/1/6 312/1/6
f 308/1/6 309/1/6 312/1/6
f 312/1/6 311/1/6 313/1/6
f 313/1/6 311/1/6 314/1/6
f 314/1/6 311/1/6 315/1/6
f 311/1/6 221/1/6 316/1/6
f 315/1/6 311/1/6 316/1/6
f 216/1/6 312/1/6 317/1/6
f 312/3/6 313/3/6 317/3/6
f 313/2/6 314/2/6 318/2/6
f 317/3/6 313/3/6 318/3/6
f 314/1/6 315/1/6 319/1/6
f 318/2/6 314/2/6 319/2/6
f 315/3/6 316/3/6 320/3/6
f 319/1/6 315/1/6 320/1/6
f 316/1/6 221/1/6 321/1/6
f 320/3/6 316/3/6 321/3/6
f 317/1/6 318/1/6 322/1/6
f 319/1/6 320/1/6 322/1/6
f 320/1/6 321/1/6 322/1/6
f 216/1/6 317/1/6 322/1/6
f 318/1/6 319/1/6 322/1/6
f 322/1/6 321/1/6 323/1/6
f 323/1/6 321/1/6 324/1/6
f 324/1/6 321/1/6 325/1/6
f 321/1/6 221/1/6 326/1/6
f 325/1/6 321/1/6 326/1/6
f 216/1/6 322/1/6 327/1/6
f 322/3/6 323/3/6 327/3/6
f 323/2/6 324/2/6 328/2/6
f 327/3/6 323/3/6 328/3/6
f 324/1/6 325/1/6 329/1/6
f 328/2/6 324/2/6 329/2/6
f 325/3/6 326/3/6 330/3/6
f 329/1/6 325/1/6 330/1/6
f 326/1/6 221/1/6 331/1/6
f 330/3/6 326/3/6 331/3/6
f 327/1/6 328/1/6 332/1/6
f 329/1/6 330/1/6 332/1/6
f 330/1/6 331/1/6 332/1/6
f 216/1/6 327/1/6 332/1/6
f 328/1/6 329/1/6 332/1/6
f 332/1/6 331/1/6 333/1/6
f 333/1/6 331/1/6 334/1/6
f 334/1/6 331/1/6 335/1/6
f 331/1/6 221/1/6 336/1/6
f 335/1/6 331/1/6 336/1/6
f 216/1/6 332/1/6 337/1/6
f 332/3/6 333/3/6 337/3/6
f 333/2/6 334/2/6 338/2/6
f 337/3/6 333/3/6 338/3/6
f 334/1/6 335/1/6 339/1/6
f 338/2/6 334/2/6 339/2/6
f 335/3/6 336/3/6 340/3/6
f 339/1/6 335/1/6 340/1/6
f 336/1/6 221/1/6 341/1/6
f 340/3/6 336/3/6 341/3/6
f 337/1/6 338/1/6 342/1/6
f 339/1/6 340/1/6 342/1/6
f 340/1/6 341/1/6 342/1/6
f 216/1/6 337/1/6 342/1/6
f 338/1/6 339/1/6 342/1/6
f 342/1/6 341/1/6 343/1/6
f 343/1/6 341/1/6 344/1/6
f 344/1/6 341/1/6 345/1/6
f 341/1/6 221/1/6 346/1/6
f 345/1/6 341/1/6 346/1/6
f 216/1/6 342/1/6 347/1/6
f 342/3/6 343/3/6 347/3/6
f 343/2/6 344/2/6 348/2/6
f 347/3/6 343/3/6 348/3/6
f 344/1/6 345/1/6 349/1/6
f 348/2/6 344/2/6 349/2/6
f 345/3/6 346/3/6 350/3/6
f 349/1/6 345/1/6 350/1/6
f 346/1/6 221/1/6 351/1/6
f 350/3/6 346/3/6 351/3/6
f 347/1/6 348/1/6 352/1/6
f 349/1/6 350/1/6 352/1/6
f 350/1/6 351/1/6 352/1/6
f 216/1/6 347/1/6 352/1/6
f 348/1/6 349/1/6 352/1/6
f 352/1/6 351/1/6 353/1/6
f 353/1/6 351/1/6 354/1/6
f 354/1/6 351/1/6 355/1/6
f 351/1/6 221/1/6 356/1/6
f 355/1/6 351/1/6 356/1/6
f 216/1/6 352/1/6 357/1/6
f 352/3/6 353/3/6 357/3/6
f 353/2/6 354/2/6 358/2/6
f 357/3/6 353/3/6 358/3/6
f 354/1/6 355/1/6 359/1/6
f 358/2/6 354/2/6 359/2/6
f 355/3/6 356/3/6 360/3/6
f 359/1/6 355/1/6 360/1/6
f 356/1/6 221/1/6 361/1/6
f 360/3/6 356/3/6 361/3/6
f 357/1/6 358/1/6 362/1/6
f 359/1/6 360/1/6 362/1/6
f 360/1/6 361/1/6 362/1/6
f 216/1/6 357/1/6 362/1/6
f 358/1/6 359/1/6 362/1/6
f 362/1/6 361/1/6 363/1/6
f 363/1/6 361/1/6 364/1/6
f 364/1/6 361/1/6 365/1/6
f 361/1/6 221/1/6 366/1/6
f 365/1/6 361/1/6 366/1/6
f 362/3/6 363/3/6 367/3/6
f 363/2/6 364/2/6 367/2/6
f 364/1/6 365/1/6 368/1/6
f 367/2/6 364/2/6 368/2/6
f 362/3/6 367/3/6 369/3/6
f 216/1/6 362/1/6 369/1/6
f 367/3/6 368/3/6 369/3/6
f 368/1/6 365/1/6 370/1/6
f 369/3/6 368/3/6 370/3/6
f 365/3/6 366/3/6 371/3/6
f 370/1/6 365/1/6 371/1/6
f 366/1/6 221/1/6 372/1/6
f 371/3/6 366/3/6 372/3/6
f 216/1/6 369/1/6 373/1/6
f 369/1/6 370/1/6 373/1/6
f 371/1/6 372/1/6 373/1/6
f 370/1/6 371/1/6 373/1/6
f 373/1/6 372/1/6 374/1/6
f 374/1/6 372/1/6 375/1/6
f 372/1/6 221/1/6 376/1/6
f 375/1/6 372/1/6 376/1/6
f 216/1/6 373/1/6 377/1/6
f 373/3/6 374/3/6 377/3/6
f 374/1/6 375/1/6 378/1/6
f 377/3/6 374/3/6 378/3/6
f 375/3/6 376/3/6 379/3/6
f 378/1/6 375/1/6 379/1/6
f 376/1/6 221/1/6 380/1/6
f 379/3/6 376/3/6 380/3/6
f 216/1/6 377/1/6 381/1/6
f 378/1/6 379/1/6 381/1/6
f 379/1/6 380/1/6 381/1/6
f 377/1/6 378/1/6 381/1/6
f 381/1/6 380/1/6 382/1/6
f 382/1/6 380/1/6 383/1/6
f 380/1/6 221/1/6 384/1/6
f 383/1/6 380/1/6 384/1/6
f 216/1/6 381/1/6 385/1/6
f 381/3/6 382/3/6 385/3/6
f 382/1/6 383/1/6 386/1/6
f 385/3/6 382/3/6 386/3/6
f 383/3/6 384/3/6 387/3/6
f 386/1/6 383/1/6 387/1/6
f 384/1/6 221/1/6 388/1/6
f 387/3/6 384/3/6 388/3/6
f 216/1/6 385/1/6 389/1/6
f 386/1/6 387/1/6 389/1/6
f 387/1/6 388/1/6 389/1/6
f 385/1/6 386/1/6 389/1/6
f 389/1/6 388/1/6 390/1/6
f 390/1/6 388/1/6 391/1/6
f 388/1/6 221/1/6 392/1/6
f 391/1/6 388/1/6 392/1/6
f 216/1/6 389/1/6 393/1/6
f 389/3/6 390/3/6 394/3/6
f 393/1/6 389/1/6 394/1/6
f 390/1/6 391/1/6 395/1/6
f 394/3/6 390/3/6 395/3/6
f 391/3/6 392/3/6 396/3/6
f 395/1/6 391/1/6 396/1/6
f 392/1/6 221/1/6 397/1/6
f 396/3/6 392/3/6 397/3/6
f 397/1/6 221/1/6 398/1/6
