# MagicaVoxel @ Ephtracy

# group
o 

# material
mtllib Sidewalk.mtl
usemtl palette

# normals
vn -1 0 0
vn 1 0 0
vn 0 0 1
vn 0 0 -1
vn 0 -1 0
vn 0 1 0

# texcoords
vt 0.962891 0.5
vt 0.974609 0.5

# verts
v -10 0 7.5
v -10 0 -7.5
v -10 0.2 7.5
v -10 0.2 -7.5
v -9.6 0.1 7.5
v -9.6 0.1 -7.5
v -9.6 0.2 7.5
v -9.6 0.2 -7.5
v 10 0 7.5
v 10 0 -7.5
v 10 0.1 7.5
v 10 0.1 -7.5
v -10 0 7.5
v -10 0.2 7.5
v -9.6 0 7.5
v -9.6 0.1 7.5
v -9.6 0.2 7.5
v 10 0 7.5
v 10 0.1 7.5
v -10 0 -7.5
v -10 0.2 -7.5
v -9.6 0 -7.5
v -9.6 0.1 -7.5
v -9.6 0.2 -7.5
v 10 0 -7.5
v 10 0.1 -7.5
v -10 0 7.5
v -9.6 0 7.5
v 10 0 7.5
v -9.9 0 7.4
v -9.6 0 7.4
v -9.9 0 -7.4
v -9.6 0 -7.4
v -10 0 -7.5
v -9.6 0 -7.5
v 10 0 -7.5
v -9.6 0.1 7.5
v 10 0.1 7.5
v -9.6 0.1 -7.5
v 10 0.1 -7.5
v -10 0.2 7.5
v -9.6 0.2 7.5
v -10 0.2 -7.5
v -9.6 0.2 -7.5

# faces
f 3/1/1 2/1/1 1/1/1
f 4/1/1 2/1/1 3/1/1
f 5/1/2 6/1/2 7/1/2
f 7/1/2 6/1/2 8/1/2
f 9/2/2 10/2/2 11/2/2
f 11/2/2 10/2/2 12/2/2
f 15/1/3 14/1/3 13/1/3
f 16/1/3 14/1/3 15/1/3
f 17/1/3 14/1/3 16/1/3
f 18/2/3 16/2/3 15/2/3
f 19/2/3 16/2/3 18/2/3
f 20/1/4 21/1/4 22/1/4
f 22/1/4 21/1/4 23/1/4
f 23/1/4 21/1/4 24/1/4
f 22/2/4 23/2/4 25/2/4
f 25/2/4 23/2/4 26/2/4
f 30/1/5 28/1/5 27/1/5
f 31/2/5 29/2/5 28/2/5
f 31/1/5 28/1/5 30/1/5
f 32/1/5 30/1/5 27/1/5
f 32/2/5 31/2/5 30/2/5
f 33/2/5 29/2/5 31/2/5
f 33/2/5 31/2/5 32/2/5
f 34/1/5 32/1/5 27/1/5
f 34/1/5 33/1/5 32/1/5
f 35/2/5 29/2/5 33/2/5
f 35/1/5 33/1/5 34/1/5
f 36/2/5 29/2/5 35/2/5
f 37/2/6 38/2/6 39/2/6
f 39/2/6 38/2/6 40/2/6
f 41/1/6 42/1/6 43/1/6
f 43/1/6 42/1/6 44/1/6
