# MagicaVoxel @ Ephtracy

# group
o 

# material
mtllib Turn.mtl
usemtl palette

# normals
vn -1 0 0
vn 1 0 0
vn 0 0 1
vn 0 0 -1
vn 0 -1 0
vn 0 1 0

# texcoords
vt 0.720703 0.5
vt 0.962891 0.5
vt 0.974609 0.5

# verts
v -10 0 7.5
v -10 0 1.5
v -10 0 -1.2
v -10 0 -7.5
v -10 0.1 1.5
v -10 0.1 -1.2
v -10 0.2 7.5
v -10 0.2 1.5
v -10 0.2 -1.2
v -10 0.2 -7.5
v -9.9 0.1 1.5
v -9.9 0.1 1.4
v -9.9 0.1 -1.1
v -9.9 0.1 -1.2
v -9.9 0.2 1.5
v -9.9 0.2 1.4
v -9.9 0.2 -1.1
v -9.9 0.2 -1.2
v -9.8 0.1 1.4
v -9.8 0.1 1.3
v -9.8 0.1 -1
v -9.8 0.1 -1.1
v -9.8 0.2 1.4
v -9.8 0.2 1.3
v -9.8 0.2 -1
v -9.8 0.2 -1.1
v -9.6 0.1 7.5
v -9.6 0.1 1.7
v -9.6 0.1 -1.4
v -9.6 0.1 -7.5
v -9.6 0.2 7.5
v -9.6 0.2 1.7
v -9.6 0.2 -1.4
v -9.6 0.2 -7.5
v 10 0 7.5
v 10 0 1.7
v 10 0 1.3
v 10 0 -1
v 10 0 -1.4
v 10 0 -7.5
v 10 0.1 7.5
v 10 0.1 1.7
v 10 0.1 1.3
v 10 0.1 -1
v 10 0.1 -1.4
v 10 0.1 -7.5
v 10 0.2 1.7
v 10 0.2 1.3
v 10 0.2 -1
v 10 0.2 -1.4
v -10 0 7.5
v -10 0.2 7.5
v -9.6 0 7.5
v -9.6 0.1 7.5
v -9.6 0.2 7.5
v 10 0 7.5
v 10 0.1 7.5
v -9.6 0.1 1.7
v -9.6 0.2 1.7
v 10 0.1 1.7
v 10 0.2 1.7
v -9.8 0.1 -1
v -9.8 0.2 -1
v 10 0.1 -1
v 10 0.2 -1
v -9.9 0.1 -1.1
v -9.9 0.2 -1.1
v -9.8 0.1 -1.1
v -9.8 0.2 -1.1
v -10 0.1 -1.2
v -10 0.2 -1.2
v -9.9 0.1 -1.2
v -9.9 0.2 -1.2
v -10 0.1 1.5
v -10 0.2 1.5
v -9.9 0.1 1.5
v -9.9 0.2 1.5
v -9.9 0.1 1.4
v -9.9 0.2 1.4
v -9.8 0.1 1.4
v -9.8 0.2 1.4
v -9.8 0.1 1.3
v -9.8 0.2 1.3
v 10 0.1 1.3
v 10 0.2 1.3
v -9.6 0.1 -1.4
v -9.6 0.2 -1.4
v 10 0.1 -1.4
v 10 0.2 -1.4
v -10 0 -7.5
v -10 0.2 -7.5
v -9.6 0 -7.5
v -9.6 0.1 -7.5
v -9.6 0.2 -7.5
v 10 0 -7.5
v 10 0.1 -7.5
v -10 0 7.5
v -9.6 0 7.5
v 10 0 7.5
v -9.9 0 7.4
v -9.6 0 7.4
v -9.6 0 1.7
v 10 0 1.7
v -10 0 1.5
v -9.9 0 1.5
v -9.9 0 1.4
v -9.8 0 1.4
v -9.8 0 1.3
v -9.6 0 1.3
v 10 0 1.3
v -9.8 0 -1
v -9.6 0 -1
v 10 0 -1
v -9.9 0 -1.1
v -9.8 0 -1.1
v -10 0 -1.2
v -9.9 0 -1.2
v -9.6 0 -1.4
v 10 0 -1.4
v -9.9 0 -7.4
v -9.6 0 -7.4
v -10 0 -7.5
v -9.6 0 -7.5
v 10 0 -7.5
v -9.6 0.1 7.5
v 10 0.1 7.5
v -9.6 0.1 1.7
v 10 0.1 1.7
v -10 0.1 1.5
v -9.9 0.1 1.5
v -9.9 0.1 1.4
v -9.8 0.1 1.4
v -9.8 0.1 1.3
v 10 0.1 1.3
v -9.8 0.1 -1
v 10 0.1 -1
v -9.9 0.1 -1.1
v -9.8 0.1 -1.1
v -10 0.1 -1.2
v -9.9 0.1 -1.2
v -9.6 0.1 -1.4
v 10 0.1 -1.4
v -9.6 0.1 -7.5
v 10 0.1 -7.5
v -10 0.2 7.5
v -9.6 0.2 7.5
v -9.6 0.2 1.7
v 10 0.2 1.7
v -10 0.2 1.5
v -9.9 0.2 1.5
v -9.9 0.2 1.4
v -9.8 0.2 1.4
v -9.8 0.2 1.3
v 10 0.2 1.3
v -9.8 0.2 -1
v 10 0.2 -1
v -9.9 0.2 -1.1
v -9.8 0.2 -1.1
v -10 0.2 -1.2
v -9.9 0.2 -1.2
v -9.6 0.2 -1.4
v 10 0.2 -1.4
v -10 0.2 -7.5
v -9.6 0.2 -7.5

# faces
f 5/2/1 2/2/1 1/2/1
f 5/1/1 3/1/1 2/1/1
f 6/2/1 4/2/1 3/2/1
f 6/1/1 3/1/1 5/1/1
f 7/2/1 5/2/1 1/2/1
f 8/2/1 5/2/1 7/2/1
f 9/2/1 4/2/1 6/2/1
f 10/2/1 4/2/1 9/2/1
f 15/2/1 12/2/1 11/2/1
f 16/2/1 12/2/1 15/2/1
f 17/2/1 14/2/1 13/2/1
f 18/2/1 14/2/1 17/2/1
f 23/2/1 20/2/1 19/2/1
f 24/2/1 20/2/1 23/2/1
f 25/2/1 22/2/1 21/2/1
f 26/2/1 22/2/1 25/2/1
f 27/2/2 28/2/2 31/2/2
f 31/2/2 28/2/2 32/2/2
f 29/2/2 30/2/2 33/2/2
f 33/2/2 30/2/2 34/2/2
f 35/3/2 36/3/2 41/3/2
f 36/2/2 37/2/2 42/2/2
f 41/3/2 36/3/2 42/3/2
f 37/1/2 38/1/2 43/1/2
f 42/2/2 37/2/2 43/2/2
f 38/2/2 39/2/2 44/2/2
f 43/1/2 38/1/2 44/1/2
f 39/3/2 40/3/2 45/3/2
f 44/2/2 39/2/2 45/2/2
f 45/3/2 40/3/2 46/3/2
f 42/2/2 43/2/2 47/2/2
f 47/2/2 43/2/2 48/2/2
f 44/2/2 45/2/2 49/2/2
f 49/2/2 45/2/2 50/2/2
f 53/2/3 52/2/3 51/2/3
f 54/2/3 52/2/3 53/2/3
f 55/2/3 52/2/3 54/2/3
f 56/3/3 54/3/3 53/3/3
f 57/3/3 54/3/3 56/3/3
f 60/2/3 59/2/3 58/2/3
f 61/2/3 59/2/3 60/2/3
f 64/2/3 63/2/3 62/2/3
f 65/2/3 63/2/3 64/2/3
f 68/2/3 67/2/3 66/2/3
f 69/2/3 67/2/3 68/2/3
f 72/2/3 71/2/3 70/2/3
f 73/2/3 71/2/3 72/2/3
f 74/2/4 75/2/4 76/2/4
f 76/2/4 75/2/4 77/2/4
f 78/2/4 79/2/4 80/2/4
f 80/2/4 79/2/4 81/2/4
f 82/2/4 83/2/4 84/2/4
f 84/2/4 83/2/4 85/2/4
f 86/2/4 87/2/4 88/2/4
f 88/2/4 87/2/4 89/2/4
f 90/2/4 91/2/4 92/2/4
f 92/2/4 91/2/4 93/2/4
f 93/2/4 91/2/4 94/2/4
f 92/3/4 93/3/4 95/3/4
f 95/3/4 93/3/4 96/3/4
f 100/2/5 98/2/5 97/2/5
f 101/3/5 99/3/5 98/3/5
f 101/2/5 98/2/5 100/2/5
f 102/3/5 101/3/5 100/3/5
f 102/3/5 99/3/5 101/3/5
f 103/3/5 99/3/5 102/3/5
f 104/2/5 100/2/5 97/2/5
f 105/3/5 102/3/5 100/3/5
f 105/2/5 100/2/5 104/2/5
f 106/1/5 105/1/5 104/1/5
f 106/3/5 102/3/5 105/3/5
f 107/3/5 102/3/5 106/3/5
f 108/1/5 107/1/5 106/1/5
f 108/3/5 102/3/5 107/3/5
f 109/2/5 103/2/5 102/2/5
f 109/3/5 102/3/5 108/3/5
f 110/2/5 103/2/5 109/2/5
f 111/1/5 108/1/5 106/1/5
f 111/1/5 109/1/5 108/1/5
f 111/1/5 110/1/5 109/1/5
f 112/1/5 110/1/5 111/1/5
f 113/1/5 110/1/5 112/1/5
f 114/1/5 106/1/5 104/1/5
f 114/1/5 111/1/5 106/1/5
f 115/3/5 112/3/5 111/3/5
f 115/1/5 111/1/5 114/1/5
f 116/1/5 114/1/5 104/1/5
f 117/3/5 115/3/5 114/3/5
f 117/1/5 114/1/5 116/1/5
f 118/2/5 113/2/5 112/2/5
f 118/3/5 115/3/5 117/3/5
f 118/3/5 112/3/5 115/3/5
f 119/2/5 113/2/5 118/2/5
f 120/2/5 117/2/5 116/2/5
f 120/3/5 118/3/5 117/3/5
f 120/3/5 119/3/5 118/3/5
f 121/3/5 119/3/5 120/3/5
f 122/2/5 120/2/5 116/2/5
f 122/2/5 121/2/5 120/2/5
f 123/3/5 119/3/5 121/3/5
f 123/2/5 121/2/5 122/2/5
f 124/3/5 119/3/5 123/3/5
f 125/3/6 126/3/6 127/3/6
f 127/3/6 126/3/6 128/3/6
f 129/1/6 130/1/6 131/1/6
f 131/1/6 132/1/6 133/1/6
f 131/1/6 133/1/6 135/1/6
f 133/1/6 134/1/6 135/1/6
f 135/1/6 134/1/6 136/1/6
f 129/1/6 131/1/6 137/1/6
f 131/1/6 135/1/6 137/1/6
f 137/1/6 135/1/6 138/1/6
f 129/1/6 137/1/6 139/1/6
f 139/1/6 137/1/6 140/1/6
f 141/3/6 142/3/6 143/3/6
f 143/3/6 142/3/6 144/3/6
f 145/2/6 146/2/6 147/2/6
f 145/2/6 147/2/6 149/2/6
f 147/2/6 148/2/6 149/2/6
f 149/2/6 148/2/6 150/2/6
f 150/2/6 148/2/6 151/2/6
f 151/2/6 148/2/6 152/2/6
f 152/2/6 148/2/6 153/2/6
f 153/2/6 148/2/6 154/2/6
f 155/2/6 156/2/6 158/2/6
f 157/2/6 158/2/6 160/2/6
f 158/2/6 156/2/6 161/2/6
f 159/2/6 160/2/6 161/2/6
f 160/2/6 158/2/6 161/2/6
f 161/2/6 156/2/6 162/2/6
f 159/2/6 161/2/6 163/2/6
f 163/2/6 161/2/6 164/2/6
